<?xml version="1.0" encoding="UTF-8"?>
<svg id="Layer_2" data-name="Layer 2" xmlns="http://www.w3.org/2000/svg" viewBox="0 0 4799.37 925.38">
  <defs>
    <style>
      .cls-1 {
        fill: #f48f21;
      }

      .cls-2 {
        fill: #fff;
      }

      .cls-3 {
        fill: #005caa;
      }

      .cls-4 {
        fill: #4a4;
      }

      .cls-5 {
        fill: #ee4033;
      }
    </style>
  </defs>
  <g id="_파니룸" data-name="파니룸">
    <path class="cls-2" d="M4787.7,696.2c-7.47-17.65-18.14-33.5-31.74-47.09-10.11-10.11-21.46-18.6-33.88-25.36,1.08-1.13,1.89-2.04,2.42-2.65.02-.03.05-.05.07-.08,21.23-24.55,28.47-51.34,30.81-69.53,1.71-13.16,3.62-47.25-15.22-80.87-22.15-39.5-59.7-54.43-79.88-62.45-1.63-.65-3.21-1.27-4.71-1.89-3.81-1.56-8.31-3.2-14-5.28-11.87-4.33-27.99-10.21-45.23-18.01-30.19-16.39-53.42-36.41-65.52-56.51-7.21-11.97-12.41-26.99-16.83-42.89h103.25c18.76,0,37-3.69,54.19-10.96,16.58-7.01,31.46-17.04,44.22-29.8,12.76-12.76,22.79-27.64,29.8-44.22,7.27-17.19,10.96-35.43,10.96-54.19s-3.69-36.99-10.96-54.19c-7.01-16.58-17.04-31.46-29.8-44.22-12.76-12.76-27.64-22.79-44.22-29.8-17.19-7.27-35.42-10.96-54.19-10.96h-523.67c-18.76,0-37,3.69-54.19,10.96-16.58,7.01-31.46,17.04-44.22,29.8-12.76,12.76-22.79,27.64-29.8,44.22-7.27,17.19-10.96,35.43-10.96,54.19s3.69,36.99,10.96,54.19c7.01,16.58,17.04,31.46,29.8,44.22,12.76,12.76,27.64,22.79,44.22,29.8,17.19,7.27,35.42,10.96,54.19,10.96h103.26c-4.42,15.89-9.62,30.9-16.85,42.89-12.11,20.09-35.34,40.12-65.52,56.51-17.24,7.8-33.36,13.68-45.22,18.01-5.69,2.08-10.19,3.72-13.98,5.27-1.54.63-3.11,1.26-4.74,1.9-20.17,8.02-57.72,22.96-79.87,62.44-18.82,33.57-16.95,67.6-15.24,80.82,2.33,18.23,9.57,45.08,30.85,69.64.01.01.02.03.04.04.53.61,1.34,1.51,2.42,2.65-11.03,6.01-21.21,13.38-30.43,22.04-12.8-12.01-27.46-21.56-43.64-28.41-10.87-4.6-22.12-7.85-33.65-9.73,11.47-6.18,21.95-13.98,31.26-23.29,12.32-12.32,22-26.68,28.77-42.69,7.02-16.6,10.58-34.2,10.58-52.31V134.36c0-18.11-3.56-35.72-10.59-52.32-6.77-16-16.45-30.37-28.78-42.69-12.32-12.32-26.68-21.99-42.69-28.76C3852.95,3.56,3835.35,0,3817.24,0h-491.25c-18.11,0-35.71,3.56-52.31,10.58-16.01,6.77-30.37,16.45-42.69,28.77-12.32,12.32-22,26.68-28.77,42.69-1.88,4.43-3.49,8.94-4.87,13.5-1.76-6.12-4-12.13-6.72-18-7.22-15.59-17.45-29.49-30.4-41.32-25.59-23.36-59.26-36.23-94.81-36.23s-69.22,12.87-94.81,36.23c-5.05,4.61-9.68,9.54-13.89,14.76-1.55-1.71-3.14-3.38-4.77-5.01-12.76-12.76-27.64-22.79-44.22-29.8-17.19-7.27-35.43-10.96-54.19-10.96h-389.69c-18.76,0-36.99,3.69-54.19,10.96-16.58,7.01-31.46,17.04-44.22,29.8-3.92,3.92-7.58,8.04-10.98,12.35-2.83-3.39-5.82-6.67-8.98-9.82-13.54-13.54-29.33-24.18-46.92-31.63-18.25-7.72-37.59-11.63-57.5-11.63s-39.26,3.91-57.5,11.63c-17.59,7.44-33.38,18.08-46.92,31.63s-24.18,29.33-31.63,46.92c-4.56,10.78-7.79,21.95-9.68,33.39-13.19-14.53-27.68-27.87-43.33-39.89-28.02-21.51-59.1-38.24-92.38-49.74-34.42-11.89-70.47-17.92-107.17-17.92-44.25,0-87.21,8.68-127.68,25.8-39.06,16.52-74.13,40.16-104.24,70.26-12.76,12.76-24.34,26.42-34.73,40.89v-19.04c-.01-18.79-3.71-37.02-10.98-54.21-7.02-16.58-17.04-31.45-29.81-44.21-12.76-12.76-27.64-22.79-44.22-29.8-17.19-7.27-35.43-10.96-54.19-10.96s-36.99,3.69-54.19,10.96c-16.58,7.01-31.46,17.04-44.22,29.8-12.76,12.76-22.79,27.64-29.8,44.22-7.27,17.19-10.96,35.42-10.96,54.19v255.34h-235.73v-240.68c0-18.76-3.69-36.99-10.96-54.19-7.01-16.58-17.04-31.46-29.8-44.22-12.76-12.76-27.64-22.79-44.22-29.8-17.19-7.27-35.43-10.96-54.19-10.96s-36.99,3.69-54.19,10.96c-16.58,7.01-31.46,17.04-44.22,29.8-6.34,6.34-12,13.2-16.96,20.54-6.18-10.94-13.8-20.99-22.79-29.97-12.76-12.76-27.64-22.79-44.22-29.8-17.19-7.27-35.42-10.96-54.19-10.96h-219c-1.98-.21-3.99-.37-5.99-.48-2.05-.12-4.14-.18-6.2-.18-3.98,0-7.99.22-11.98.65h-37.36c-3.98-.43-8-.64-12.01-.64-1.9,0-3.82.05-5.73.14-.09,0-.19,0-.28.02-2.06.11-4.08.27-6.11.48h-218.94c-18.79.01-37.02,3.71-54.21,10.98-16.58,7.02-31.45,17.04-44.21,29.81-12.76,12.76-22.79,27.64-29.8,44.22-7.27,17.19-10.96,35.42-10.96,54.19s3.69,36.99,10.96,54.19c7.01,16.58,17.04,31.46,29.8,44.22,12.76,12.76,27.64,22.79,44.22,29.8,4.05,1.71,8.17,3.23,12.33,4.54-20.92,5.09-46.63,15.17-67.74,38.43-25.79,28.43-31.64,62.11-32.95,75.27,0,.03,0,.05,0,.08-1.8,18.27-.75,46.07,14.48,74.78.02.04.04.08.06.11,1.34,2.51,5.27,9.41,12.21,18.05-6.36,4.44-12.34,9.44-17.9,14.99-12.1,12.1-21.6,26.2-28.25,41.91-6.9,16.3-10.39,33.58-10.39,51.36s3.5,35.06,10.39,51.36c6.65,15.71,16.15,29.81,28.25,41.91,12.1,12.1,26.2,21.6,41.91,28.25,9.39,3.97,19.11,6.82,29.06,8.51-10.8,21.74-15.75,46.13-14.04,70.16,3.76,52.57,36.32,84.65,50.14,96,.19.16.39.32.59.48,25.97,20.76,58.55,32.2,91.75,32.2,21.54,0,43.22-4.84,62.67-13.99,18.95-8.91,35.41-21.47,49.01-37.37,18.94-17.65,34.9-37.99,47.48-60.52,16.45-29.48,24.89-58.69,28.65-85.11h33.8v54.3c0,19.82,3.9,39.08,11.58,57.25,7.41,17.51,18,33.23,31.49,46.71,13.48,13.48,29.2,24.08,46.71,31.49,18.16,7.68,37.42,11.58,57.25,11.58s39.08-3.9,57.25-11.58c17.51-7.41,33.23-18,46.71-31.49,13.48-13.48,24.08-29.2,31.49-46.71,7.68-18.16,11.58-37.42,11.58-57.25v-54.33c16.82-.34,33.18-3.82,48.64-10.36,15.71-6.65,29.81-16.15,41.91-28.24,12.1-12.1,21.6-26.2,28.25-41.91,1.88-4.44,3.49-8.95,4.87-13.53,14.65,10.49,30.92,19.32,48.59,26.28,31.61,12.46,59.05,15.64,69.38,16.42,1.46.11,2.93.17,4.4.17h307.71v96.48c0,18.76,3.69,36.99,10.96,54.19,7.01,16.58,17.04,31.46,29.8,44.22,12.76,12.76,27.64,22.79,44.22,29.8,17.19,7.27,35.42,10.96,54.19,10.96s36.99-3.69,54.19-10.96c16.58-7.01,31.46-17.04,44.22-29.8,12.76-12.76,22.79-27.64,29.8-44.22,7.27-17.19,10.96-35.42,10.96-54.19v-229.01c10.38,14.46,21.96,28.12,34.72,40.87,30.1,30.1,65.17,53.74,104.24,70.27,40.47,17.12,83.43,25.8,127.69,25.8,35.05,0,69.58-5.51,102.61-16.39,31.96-10.52,62.04-25.89,89.39-45.67,17.75-12.83,34.12-27.36,48.92-43.38v182.64c0,19.91,3.91,39.26,11.63,57.5,7.44,17.59,18.08,33.38,31.63,46.92,13.54,13.54,29.33,24.18,46.92,31.63,18.25,7.72,37.59,11.63,57.5,11.63s39.26-3.91,57.5-11.63c17.59-7.44,33.38-18.08,46.92-31.63.41-.41.81-.83,1.22-1.25,3.16,4.21,6.63,8.23,10.42,12.01,20.93,20.94,48.76,32.47,78.36,32.47h655.9c29.59,0,57.41-11.52,78.34-32.44,3.85-3.84,7.37-7.92,10.57-12.2.4.41.8.83,1.21,1.24,13.59,13.59,29.43,24.27,47.09,31.74,18.31,7.74,37.72,11.67,57.7,11.67h570.66c19.98,0,39.39-3.93,57.7-11.67,16.18-6.85,30.84-16.4,43.64-28.41,12.8,12.01,27.46,21.56,43.64,28.41,18.31,7.74,37.72,11.67,57.7,11.67h591.54c19.98,0,39.4-3.93,57.7-11.67,17.66-7.47,33.5-18.14,47.09-31.74,13.59-13.59,24.27-29.43,31.74-47.09,7.74-18.31,11.67-37.72,11.67-57.7s-3.93-39.4-11.67-57.7ZM456.69,460.26h-45.06c7.54-5.04,15.08-10.41,22.53-16.17,7.44,5.76,14.99,11.13,22.53,16.17ZM737.82,277.15c4.16-1.31,8.27-2.83,12.33-4.54,16.15-6.83,30.68-16.53,43.22-28.82v60.13c-18.31-15.17-38.51-22.62-55.54-26.77ZM4355.41,552.59c22.32,19.03,48.21,37,76.62,53.11h-153.23c28.41-16.12,54.3-34.08,76.62-53.11ZM3670.87,280.73v62.24h-198.51v-62.24h198.51ZM1852.44,302.21c25.92,0,47.02,21.09,47.02,47.02s-21.09,47.02-47.02,47.02-47.02-21.09-47.02-47.02,21.09-47.02,47.02-47.02ZM3230.98,584.36c9.31,9.31,19.79,17.11,31.26,23.29-11.53,1.88-22.79,5.13-33.65,9.73-9.33,3.95-18.15,8.8-26.4,14.49v-90.28s.02.05.03.08c6.77,16.01,16.45,30.37,28.77,42.69ZM3191.63,429.22v50.6c-4.09-8.65-9.33-16.78-15.63-24.2,5.75-7.49,10.64-15.55,14.61-24.13.35-.75.68-1.51,1.01-2.27Z"/>
    <g>
      <path class="cls-4" d="M3856.94,663.71h-180.37v-88.73c0-3.13-.16-6.23-.46-9.27h141.13c42.18,0,76.36-34.18,76.36-76.36V134.36c0-42.18-34.21-76.36-76.36-76.36h-491.25c-42.18,0-76.36,34.18-76.36,76.36v354.99c0,42.18,34.18,76.36,76.36,76.36h141.13c-.3,3.05-.46,6.15-.46,9.27v88.73h-180.37c-49.82,0-90.2,40.38-90.2,90.2h0c0,49.82,40.38,90.2,90.2,90.2h570.66c49.82,0,90.2-40.38,90.2-90.2h0c0-49.82-40.38-90.2-90.2-90.2h0ZM3414.36,222.73h314.51v178.25h-314.51v-178.25Z"/>
      <g>
        <path class="cls-3" d="M750.99,518.26H131.91c-40.82,0-73.91,33.09-73.91,73.91h0c0,40.82,33.09,73.91,73.91,73.91h57.59v27.49c0,11.12-3.78,21.92-10.74,30.62l-12.54,15.66c-3.89,5.93-14.55,23.87-12.81,48.4,2.34,32.71,24.99,51.91,29.1,55.28h0c38.4,30.7,94.41,24.47,125.11-13.95,10.5-9.44,25.91-25.37,38.94-48.7,25.34-45.41,25.34-89.92,22.68-114.83h148.42v112.3c0,49.16,39.86,89.03,89.03,89.03h0c49.16,0,89.03-39.86,89.03-89.03v-112.3h55.28c40.82,0,73.91-33.09,73.91-73.91h0c0-40.82-33.09-73.91-73.91-73.91v.03Z"/>
        <path class="cls-3" d="M130.58,471.38c54.57,28.69,222.13-15.85,303.57-105.75,81.47,89.9,249,134.41,303.57,105.75,24.45-12.83,35.08-32.85,35.08-32.85,9.22-17.38,8.76-34.18,7.99-41.9-.35-3.53-2.77-25.1-18.19-42.07-18.41-20.29-44.89-22.46-63.33-25.51-22.41-3.7-92.21-18.33-135.69-63.36-11.45-11.86-20.97-25.78-29.34-40.14h161.71c44.84,0,81.17-36.33,81.17-81.17h0c0-44.84-36.33-81.17-81.17-81.17h-222.49c-1.88-.27-3.81-.46-5.79-.57-3.81-.22-7.56,0-11.18.57h-44.76c-3.64-.57-7.37-.76-11.18-.57-1.99.11-3.89.3-5.79.57h-222.43c-44.84.03-81.17,36.36-81.17,81.2h0c0,44.84,36.33,81.17,81.17,81.17h161.71c-8.38,14.38-17.89,28.31-29.34,40.14-43.51,45.03-113.28,59.66-135.69,63.36-18.44,3.05-44.92,5.22-63.33,25.51-15.39,16.97-17.84,38.53-18.19,42.07-.76,7.72-1.22,24.53,7.99,41.9,0,0,10.66,19.99,35.08,32.85v-.03Z"/>
      </g>
      <path class="cls-1" d="M1446.6,58h0c-44.84,0-81.17,36.33-81.17,81.17v313.34h-333.4c-10.12,0-18.33-8.21-18.33-18.33V153.83c0-44.84-36.33-81.17-81.17-81.17h0c-44.84,0-81.17,36.33-81.17,81.17v313.53c.35,16.56,3.48,45.08,20.86,73.8,39.67,65.53,117.88,72.96,127.53,73.69h365.71v154.48c0,44.84,36.33,81.17,81.17,81.17h0c44.84,0,81.17-36.33,81.17-81.17V139.17c-.03-44.84-36.36-81.17-81.2-81.17Z"/>
      <path class="cls-5" d="M2241.05,63.25h0c-49.52,0-89.68,40.16-89.68,89.68v122.69h-39.1c-32.06-113.34-136.23-196.36-259.82-196.36-149.1,0-269.99,120.87-269.99,269.99s120.87,269.99,269.99,269.99c118.01,0,218.35-75.73,255.04-181.26h43.89v316.46c0,49.52,40.16,89.68,89.68,89.68h0c49.52,0,89.68-40.16,89.68-89.68V152.93c0-49.52-40.16-89.68-89.68-89.68ZM1852.44,454.25c-58,0-105.02-47.02-105.02-105.02s47.02-105.02,105.02-105.02,105.02,47.02,105.02,105.02-47.02,105.02-105.02,105.02Z"/>
      <g>
        <path class="cls-4" d="M4651.18,663.71h-591.54c-49.82,0-90.2,40.38-90.2,90.2h0c0,49.82,40.38,90.2,90.2,90.2h591.54c49.82,0,90.2-40.38,90.2-90.2h0c0-49.82-40.38-90.2-90.2-90.2Z"/>
        <path class="cls-4" d="M4229.67,356.41c-22.62,37.55-61.13,63.44-89.41,78.56-28.04,12.83-53.51,21.07-63,24.96-17.29,7.1-42.61,15.15-56.02,39.05-11.2,19.99-8.76,41.52-8.29,45.06.98,7.7,4.3,24.2,17.16,39.05,0,0,14.85,17.1,41.55,24.15,53.05,14,213.21-48.51,283.75-137.05,70.54,88.54,230.7,151.05,283.75,137.05,26.7-7.04,41.55-24.15,41.55-24.15,12.86-14.87,16.18-31.35,17.16-39.05.46-3.53,2.91-25.07-8.29-45.06-13.41-23.9-38.72-31.95-56.02-39.05-9.49-3.89-34.97-12.13-63-24.96-28.28-15.12-66.78-41.01-89.41-78.56-15.91-26.4-23.63-58.33-30.54-86.72-1.88-7.72-3.02-24.07-3.78-44.11h170.41c44.84,0,81.17-36.33,81.17-81.17h0c0-44.84-36.33-81.17-81.17-81.17h-523.67c-44.84,0-81.17,36.33-81.17,81.17h0c0,44.84,36.33,81.17,81.17,81.17h170.41c-.76,20.07-1.9,36.38-3.78,44.11-6.88,28.39-14.63,60.31-30.54,86.72h0Z"/>
      </g>
      <path class="cls-4" d="M3065.41,58c-43.51,0-78.78,32.2-78.78,71.92v249.22c0,39.73,35.27,71.92,78.78,71.92v-.03c43.51,0,78.78-32.2,78.78-71.92v-249.19c0-39.73-35.27-71.92-78.78-71.92Z"/>
      <path class="cls-4" d="M3091.37,474.34v.03h-655.9c-29.15,0-52.81,23.63-52.81,52.81s23.63,52.81,52.81,52.81h549.01v26.46h-549.01c-29.15,0-52.81,23.63-52.81,52.81v132.05c0,29.15,23.63,52.81,52.81,52.81h655.9c29.15,0,52.81-23.63,52.81-52.81s-23.63-52.81-52.81-52.81h-549.01v-26.46h549.01c29.15,0,52.81-23.63,52.81-52.81v-132.07c0-29.15-23.63-52.81-52.81-52.81Z"/>
      <path class="cls-4" d="M2463.83,288.7c-44.84,0-81.17,36.33-81.17,81.17s36.33,81.17,81.17,81.17h389.69c44.84,0,81.17-36.33,81.17-81.17s-36.33-81.17-81.17-81.17h-41.03v-63.14h41.03c44.84,0,81.17-36.33,81.17-81.17s-36.33-81.17-81.17-81.17h-389.69c-44.84,0-81.17,36.33-81.17,81.17s36.33,81.17,81.17,81.17h41.03v63.14h-41.03ZM2637.21,225.59h42.91v63.14h-42.91s0-63.14,0-63.14Z"/>
    </g>
  </g>
</svg>