<?xml version="1.0" encoding="UTF-8"?>
<svg id="Layer_2" data-name="Layer 2" xmlns="http://www.w3.org/2000/svg" viewBox="0 0 7636.61 925.38">
  <defs>
    <style>
      .cls-1 {
        fill: #f48f21;
      }

      .cls-2 {
        fill: #f60;
      }

      .cls-3 {
        fill: #fff;
      }

      .cls-4 {
        fill: #005caa;
      }

      .cls-5 {
        fill: #4a4;
      }

      .cls-6 {
        fill: #ee4033;
      }
    </style>
  </defs>
  <g id="_파니룸" data-name="파니룸">
    <g>
      <path class="cls-3" d="M4787.7,696.2c-7.47-17.65-18.14-33.5-31.74-47.09-10.11-10.11-21.46-18.6-33.88-25.36,1.08-1.13,1.89-2.04,2.42-2.65.02-.03.05-.05.07-.08,21.23-24.55,28.47-51.34,30.81-69.53,1.71-13.16,3.62-47.25-15.22-80.87-22.15-39.5-59.7-54.43-79.88-62.45-1.63-.65-3.21-1.27-4.71-1.89-3.81-1.56-8.31-3.2-14-5.28-11.87-4.33-27.99-10.21-45.23-18.01-30.19-16.39-53.42-36.41-65.52-56.51-7.21-11.97-12.41-26.99-16.83-42.89h103.25c18.76,0,37-3.69,54.19-10.96,16.58-7.01,31.46-17.04,44.22-29.8,12.76-12.76,22.79-27.64,29.8-44.22,7.27-17.19,10.96-35.43,10.96-54.19s-3.69-36.99-10.96-54.19c-7.01-16.58-17.04-31.46-29.8-44.22-12.76-12.76-27.64-22.79-44.22-29.8-17.19-7.27-35.42-10.96-54.19-10.96h-523.67c-18.76,0-37,3.69-54.19,10.96-16.58,7.01-31.46,17.04-44.22,29.8-12.76,12.76-22.79,27.64-29.8,44.22-7.27,17.19-10.96,35.43-10.96,54.19s3.69,36.99,10.96,54.19c7.01,16.58,17.04,31.46,29.8,44.22,12.76,12.76,27.64,22.79,44.22,29.8,17.19,7.27,35.42,10.96,54.19,10.96h103.26c-4.42,15.89-9.62,30.9-16.85,42.89-12.11,20.09-35.34,40.12-65.52,56.51-17.24,7.8-33.36,13.68-45.22,18.01-5.69,2.08-10.19,3.72-13.98,5.27-1.54.63-3.11,1.26-4.74,1.9-20.17,8.02-57.72,22.96-79.87,62.44-18.82,33.57-16.95,67.6-15.24,80.82,2.33,18.23,9.57,45.08,30.85,69.64.01.01.02.03.04.04.53.61,1.34,1.51,2.42,2.65-11.03,6.01-21.21,13.38-30.43,22.04-12.8-12.01-27.46-21.56-43.64-28.41-10.87-4.6-22.12-7.85-33.65-9.73,11.47-6.18,21.95-13.98,31.26-23.29,12.32-12.32,22-26.68,28.77-42.69,7.02-16.6,10.58-34.2,10.58-52.31V134.36c0-18.11-3.56-35.72-10.59-52.32-6.77-16-16.45-30.37-28.78-42.69-12.32-12.32-26.68-21.99-42.69-28.76C3852.95,3.56,3835.35,0,3817.24,0h-491.25c-18.11,0-35.71,3.56-52.31,10.58-16.01,6.77-30.37,16.45-42.69,28.77-12.32,12.32-22,26.68-28.77,42.69-1.88,4.43-3.49,8.94-4.87,13.5-1.76-6.12-4-12.13-6.72-18-7.22-15.59-17.45-29.49-30.4-41.32-25.59-23.36-59.26-36.23-94.81-36.23s-69.22,12.87-94.81,36.23c-5.05,4.61-9.68,9.54-13.89,14.76-1.55-1.71-3.14-3.38-4.77-5.01-12.76-12.76-27.64-22.79-44.22-29.8-17.19-7.27-35.43-10.96-54.19-10.96h-389.69c-18.76,0-36.99,3.69-54.19,10.96-16.58,7.01-31.46,17.04-44.22,29.8-3.92,3.92-7.58,8.04-10.98,12.35-2.83-3.39-5.82-6.67-8.98-9.82-13.54-13.54-29.33-24.18-46.92-31.63-18.25-7.72-37.59-11.63-57.5-11.63s-39.26,3.91-57.5,11.63c-17.59,7.44-33.38,18.08-46.92,31.63s-24.18,29.33-31.63,46.92c-4.56,10.78-7.79,21.95-9.68,33.39-13.19-14.53-27.68-27.87-43.33-39.89-28.02-21.51-59.1-38.24-92.38-49.74-34.42-11.89-70.47-17.92-107.17-17.92-44.25,0-87.21,8.68-127.68,25.8-39.06,16.52-74.13,40.16-104.24,70.26-12.76,12.76-24.34,26.42-34.73,40.89v-19.04c-.01-18.79-3.71-37.02-10.98-54.21-7.02-16.58-17.04-31.45-29.81-44.21-12.76-12.76-27.64-22.79-44.22-29.8-17.19-7.27-35.43-10.96-54.19-10.96s-36.99,3.69-54.19,10.96c-16.58,7.01-31.46,17.04-44.22,29.8-12.76,12.76-22.79,27.64-29.8,44.22-7.27,17.19-10.96,35.42-10.96,54.19v255.34h-235.73v-240.68c0-18.76-3.69-36.99-10.96-54.19-7.01-16.58-17.04-31.46-29.8-44.22-12.76-12.76-27.64-22.79-44.22-29.8-17.19-7.27-35.43-10.96-54.19-10.96s-36.99,3.69-54.19,10.96c-16.58,7.01-31.46,17.04-44.22,29.8-6.34,6.34-12,13.2-16.96,20.54-6.18-10.94-13.8-20.99-22.79-29.97-12.76-12.76-27.64-22.79-44.22-29.8-17.19-7.27-35.42-10.96-54.19-10.96h-219c-1.98-.21-3.99-.37-5.99-.48-2.05-.12-4.14-.18-6.2-.18-3.98,0-7.99.22-11.98.65h-37.36c-3.98-.43-8-.64-12.01-.64-1.9,0-3.82.05-5.73.14-.09,0-.19,0-.28.02-2.06.11-4.08.27-6.11.48h-218.94c-18.79.01-37.02,3.71-54.21,10.98-16.58,7.02-31.45,17.04-44.21,29.81-12.76,12.76-22.79,27.64-29.8,44.22-7.27,17.19-10.96,35.42-10.96,54.19s3.69,36.99,10.96,54.19c7.01,16.58,17.04,31.46,29.8,44.22,12.76,12.76,27.64,22.79,44.22,29.8,4.05,1.71,8.17,3.23,12.33,4.54-20.92,5.09-46.63,15.17-67.74,38.43-25.79,28.43-31.64,62.11-32.95,75.27,0,.03,0,.05,0,.08-1.8,18.27-.75,46.07,14.48,74.78.02.04.04.08.06.11,1.34,2.51,5.27,9.41,12.21,18.05-6.36,4.44-12.34,9.44-17.9,14.99-12.1,12.1-21.6,26.2-28.25,41.91-6.9,16.3-10.39,33.58-10.39,51.36s3.5,35.06,10.39,51.36c6.65,15.71,16.15,29.81,28.25,41.91,12.1,12.1,26.2,21.6,41.91,28.25,9.39,3.97,19.11,6.82,29.06,8.51-10.8,21.74-15.75,46.13-14.04,70.16,3.76,52.57,36.32,84.65,50.14,96,.19.16.39.32.59.48,25.97,20.76,58.55,32.2,91.75,32.2,21.54,0,43.22-4.84,62.67-13.99,18.95-8.91,35.41-21.47,49.01-37.37,18.94-17.65,34.9-37.99,47.48-60.52,16.45-29.48,24.89-58.69,28.65-85.11h33.8v54.3c0,19.82,3.9,39.08,11.58,57.25,7.41,17.51,18,33.23,31.49,46.71,13.48,13.48,29.2,24.08,46.71,31.49,18.16,7.68,37.42,11.58,57.25,11.58s39.08-3.9,57.25-11.58c17.51-7.41,33.23-18,46.71-31.49,13.48-13.48,24.08-29.2,31.49-46.71,7.68-18.16,11.58-37.42,11.58-57.25v-54.33c16.82-.34,33.18-3.82,48.64-10.36,15.71-6.65,29.81-16.15,41.91-28.24,12.1-12.1,21.6-26.2,28.25-41.91,1.88-4.44,3.49-8.95,4.87-13.53,14.65,10.49,30.92,19.32,48.59,26.28,31.61,12.46,59.05,15.64,69.38,16.42,1.46.11,2.93.17,4.4.17h307.71v96.48c0,18.76,3.69,36.99,10.96,54.19,7.01,16.58,17.04,31.46,29.8,44.22,12.76,12.76,27.64,22.79,44.22,29.8,17.19,7.27,35.42,10.96,54.19,10.96s36.99-3.69,54.19-10.96c16.58-7.01,31.46-17.04,44.22-29.8,12.76-12.76,22.79-27.64,29.8-44.22,7.27-17.19,10.96-35.42,10.96-54.19v-229.01c10.38,14.46,21.96,28.12,34.72,40.87,30.1,30.1,65.17,53.74,104.24,70.27,40.47,17.12,83.43,25.8,127.69,25.8,35.05,0,69.58-5.51,102.61-16.39,31.96-10.52,62.04-25.89,89.39-45.67,17.75-12.83,34.12-27.36,48.92-43.38v182.64c0,19.91,3.91,39.26,11.63,57.5,7.44,17.59,18.08,33.38,31.63,46.92,13.54,13.54,29.33,24.18,46.92,31.63,18.25,7.72,37.59,11.63,57.5,11.63s39.26-3.91,57.5-11.63c17.59-7.44,33.38-18.08,46.92-31.63.41-.41.81-.83,1.22-1.25,3.16,4.21,6.63,8.23,10.42,12.01,20.93,20.94,48.76,32.47,78.36,32.47h655.9c29.59,0,57.41-11.52,78.34-32.44,3.85-3.84,7.37-7.92,10.57-12.2.4.41.8.83,1.21,1.24,13.59,13.59,29.43,24.27,47.09,31.74,18.31,7.74,37.72,11.67,57.7,11.67h570.66c19.98,0,39.39-3.93,57.7-11.67,16.18-6.85,30.84-16.4,43.64-28.41,12.8,12.01,27.46,21.56,43.64,28.41,18.31,7.74,37.72,11.67,57.7,11.67h591.54c19.98,0,39.4-3.93,57.7-11.67,17.66-7.47,33.5-18.14,47.09-31.74,13.59-13.59,24.27-29.43,31.74-47.09,7.74-18.31,11.67-37.72,11.67-57.7s-3.93-39.4-11.67-57.7ZM456.69,460.26h-45.06c7.54-5.04,15.08-10.41,22.53-16.17,7.44,5.76,14.99,11.13,22.53,16.17ZM737.82,277.15c4.16-1.31,8.27-2.83,12.33-4.54,16.15-6.83,30.68-16.53,43.22-28.82v60.13c-18.31-15.17-38.51-22.62-55.54-26.77ZM4355.41,552.59c22.32,19.03,48.21,37,76.62,53.11h-153.23c28.41-16.12,54.3-34.08,76.62-53.11ZM3670.87,280.73v62.24h-198.51v-62.24h198.51ZM1852.44,302.21c25.92,0,47.02,21.09,47.02,47.02s-21.09,47.02-47.02,47.02-47.02-21.09-47.02-47.02,21.09-47.02,47.02-47.02ZM3230.98,584.36c9.31,9.31,19.79,17.11,31.26,23.29-11.53,1.88-22.79,5.13-33.65,9.73-9.33,3.95-18.15,8.8-26.4,14.49v-90.28s.02.05.03.08c6.77,16.01,16.45,30.37,28.77,42.69ZM3191.63,429.22v50.6c-4.09-8.65-9.33-16.78-15.63-24.2,5.75-7.49,10.64-15.55,14.61-24.13.35-.75.68-1.51,1.01-2.27Z"/>
      <g>
        <path class="cls-5" d="M3856.94,663.71h-180.37v-88.73c0-3.13-.16-6.23-.46-9.27h141.13c42.18,0,76.36-34.18,76.36-76.36V134.36c0-42.18-34.21-76.36-76.36-76.36h-491.25c-42.18,0-76.36,34.18-76.36,76.36v354.99c0,42.18,34.18,76.36,76.36,76.36h141.13c-.3,3.05-.46,6.15-.46,9.27v88.73h-180.37c-49.82,0-90.2,40.38-90.2,90.2h0c0,49.82,40.38,90.2,90.2,90.2h570.66c49.82,0,90.2-40.38,90.2-90.2h0c0-49.82-40.38-90.2-90.2-90.2h0ZM3414.36,222.73h314.51v178.25h-314.51v-178.25Z"/>
        <g>
          <path class="cls-4" d="M750.99,518.26H131.91c-40.82,0-73.91,33.09-73.91,73.91h0c0,40.82,33.09,73.91,73.91,73.91h57.59v27.49c0,11.12-3.78,21.92-10.74,30.62l-12.54,15.66c-3.89,5.93-14.55,23.87-12.81,48.4,2.34,32.71,24.99,51.91,29.1,55.28h0c38.4,30.7,94.41,24.47,125.11-13.95,10.5-9.44,25.91-25.37,38.94-48.7,25.34-45.41,25.34-89.92,22.68-114.83h148.42v112.3c0,49.16,39.86,89.03,89.03,89.03h0c49.16,0,89.03-39.86,89.03-89.03v-112.3h55.28c40.82,0,73.91-33.09,73.91-73.91h0c0-40.82-33.09-73.91-73.91-73.91v.03Z"/>
          <path class="cls-4" d="M130.58,471.38c54.57,28.69,222.13-15.85,303.57-105.75,81.47,89.9,249,134.41,303.57,105.75,24.45-12.83,35.08-32.85,35.08-32.85,9.22-17.38,8.76-34.18,7.99-41.9-.35-3.53-2.77-25.1-18.19-42.07-18.41-20.29-44.89-22.46-63.33-25.51-22.41-3.7-92.21-18.33-135.69-63.36-11.45-11.86-20.97-25.78-29.34-40.14h161.71c44.84,0,81.17-36.33,81.17-81.17h0c0-44.84-36.33-81.17-81.17-81.17h-222.49c-1.88-.27-3.81-.46-5.79-.57-3.81-.22-7.56,0-11.18.57h-44.76c-3.64-.57-7.37-.76-11.18-.57-1.99.11-3.89.3-5.79.57h-222.43c-44.84.03-81.17,36.36-81.17,81.2h0c0,44.84,36.33,81.17,81.17,81.17h161.71c-8.38,14.38-17.89,28.31-29.34,40.14-43.51,45.03-113.28,59.66-135.69,63.36-18.44,3.05-44.92,5.22-63.33,25.51-15.39,16.97-17.84,38.53-18.19,42.07-.76,7.72-1.22,24.53,7.99,41.9,0,0,10.66,19.99,35.08,32.85v-.03Z"/>
        </g>
        <path class="cls-1" d="M1446.6,58h0c-44.84,0-81.17,36.33-81.17,81.17v313.34h-333.4c-10.12,0-18.33-8.21-18.33-18.33V153.83c0-44.84-36.33-81.17-81.17-81.17h0c-44.84,0-81.17,36.33-81.17,81.17v313.53c.35,16.56,3.48,45.08,20.86,73.8,39.67,65.53,117.88,72.96,127.53,73.69h365.71v154.48c0,44.84,36.33,81.17,81.17,81.17h0c44.84,0,81.17-36.33,81.17-81.17V139.17c-.03-44.84-36.36-81.17-81.2-81.17Z"/>
        <path class="cls-6" d="M2241.05,63.25h0c-49.52,0-89.68,40.16-89.68,89.68v122.69h-39.1c-32.06-113.34-136.23-196.36-259.82-196.36-149.1,0-269.99,120.87-269.99,269.99s120.87,269.99,269.99,269.99c118.01,0,218.35-75.73,255.04-181.26h43.89v316.46c0,49.52,40.16,89.68,89.68,89.68h0c49.52,0,89.68-40.16,89.68-89.68V152.93c0-49.52-40.16-89.68-89.68-89.68ZM1852.44,454.25c-58,0-105.02-47.02-105.02-105.02s47.02-105.02,105.02-105.02,105.02,47.02,105.02,105.02-47.02,105.02-105.02,105.02Z"/>
        <g>
          <path class="cls-5" d="M4651.18,663.71h-591.54c-49.82,0-90.2,40.38-90.2,90.2h0c0,49.82,40.38,90.2,90.2,90.2h591.54c49.82,0,90.2-40.38,90.2-90.2h0c0-49.82-40.38-90.2-90.2-90.2Z"/>
          <path class="cls-5" d="M4229.67,356.41c-22.62,37.55-61.13,63.44-89.41,78.56-28.04,12.83-53.51,21.07-63,24.96-17.29,7.1-42.61,15.15-56.02,39.05-11.2,19.99-8.76,41.52-8.29,45.06.98,7.7,4.3,24.2,17.16,39.05,0,0,14.85,17.1,41.55,24.15,53.05,14,213.21-48.51,283.75-137.05,70.54,88.54,230.7,151.05,283.75,137.05,26.7-7.04,41.55-24.15,41.55-24.15,12.86-14.87,16.18-31.35,17.16-39.05.46-3.53,2.91-25.07-8.29-45.06-13.41-23.9-38.72-31.95-56.02-39.05-9.49-3.89-34.97-12.13-63-24.96-28.28-15.12-66.78-41.01-89.41-78.56-15.91-26.4-23.63-58.33-30.54-86.72-1.88-7.72-3.02-24.07-3.78-44.11h170.41c44.84,0,81.17-36.33,81.17-81.17h0c0-44.84-36.33-81.17-81.17-81.17h-523.67c-44.84,0-81.17,36.33-81.17,81.17h0c0,44.84,36.33,81.17,81.17,81.17h170.41c-.76,20.07-1.9,36.38-3.78,44.11-6.88,28.39-14.63,60.31-30.54,86.72h0Z"/>
        </g>
        <path class="cls-5" d="M3065.41,58c-43.51,0-78.78,32.2-78.78,71.92v249.22c0,39.73,35.27,71.92,78.78,71.92v-.03c43.51,0,78.78-32.2,78.78-71.92v-249.19c0-39.73-35.27-71.92-78.78-71.92Z"/>
        <path class="cls-5" d="M3091.37,474.34v.03h-655.9c-29.15,0-52.81,23.63-52.81,52.81s23.63,52.81,52.81,52.81h549.01v26.46h-549.01c-29.15,0-52.81,23.63-52.81,52.81v132.05c0,29.15,23.63,52.81,52.81,52.81h655.9c29.15,0,52.81-23.63,52.81-52.81s-23.63-52.81-52.81-52.81h-549.01v-26.46h549.01c29.15,0,52.81-23.63,52.81-52.81v-132.07c0-29.15-23.63-52.81-52.81-52.81Z"/>
        <path class="cls-5" d="M2463.83,288.7c-44.84,0-81.17,36.33-81.17,81.17s36.33,81.17,81.17,81.17h389.69c44.84,0,81.17-36.33,81.17-81.17s-36.33-81.17-81.17-81.17h-41.03v-63.14h41.03c44.84,0,81.17-36.33,81.17-81.17s-36.33-81.17-81.17-81.17h-389.69c-44.84,0-81.17,36.33-81.17,81.17s36.33,81.17,81.17,81.17h41.03v63.14h-41.03ZM2637.21,225.59h42.91v63.14h-42.91s0-63.14,0-63.14Z"/>
      </g>
    </g>
    <g>
      <g>
        <path class="cls-2" d="M5797.21,875.52c-7.81,0-14.87-3.26-19.87-8.49-5.01,5.23-12.06,8.49-19.87,8.49h-135.12c-15.19,0-27.5-12.31-27.5-27.5v-20.41c-4.37,9.41-13.9,15.93-24.96,15.93h-236.07c-37.6,0-65.87-5.11-86.44-15.63-23.17-11.88-39.14-31.35-47.49-57.88-7-22.22-10.4-52.58-10.4-92.81V224.58c0-40.21,3.4-70.57,10.4-92.81,8.36-26.55,24.33-46.01,47.48-57.86,20.56-10.53,48.84-15.65,86.46-15.65h119.22c37.61,0,65.89,5.12,86.45,15.65,23.14,11.85,39.12,31.32,47.48,57.86,3.53,11.21,6.15,24.47,7.87,40.01v-43.11c0-28.47,8.68-52.08,25.79-70.2,17.53-18.56,40.84-27.97,69.27-27.97s51.73,9.41,69.26,27.97c8.01,8.48,14.17,18.16,18.46,28.98,4.44-10.74,10.73-20.35,18.85-28.77,18.05-18.71,41.83-28.19,70.67-28.19s52.66,9.55,70.46,28.39c17.38,18.41,26.19,42.45,26.19,71.48v717.66c0,15.19-12.31,27.5-27.5,27.5h-139.09ZM5400.91,661.51s0-421.12,0-421.2h-14.95v420.09c0,.39,0,.76.01,1.11h14.93Z"/>
        <path class="cls-3" d="M5867.16,58c21.19,0,38.02,6.6,50.47,19.77,12.45,13.19,18.68,30.72,18.68,52.59v717.66h-139.09V130.36c0-21.87,6.36-39.4,19.07-52.59,12.71-13.17,29.68-19.77,50.88-19.77M5689.92,58c20.66,0,37.09,6.46,49.27,19.36s18.28,30.01,18.28,51.32v719.35h-135.12v-336.54h-52.46v304.57h-236.07c-32.86,0-57.5-4.22-73.92-12.61-16.42-8.42-27.69-22.3-33.78-41.65-6.09-19.34-9.13-47.53-9.13-84.55V224.58c0-37.01,3.04-65.19,9.13-84.55,6.09-19.34,17.36-33.23,33.78-41.64,16.42-8.41,41.06-12.63,73.92-12.63h119.22c32.85,0,57.5,4.22,73.92,12.63,16.42,8.41,27.69,22.3,33.78,41.64,6.09,19.36,9.15,47.54,9.15,84.55v147.24h52.46v-243.15c0-21.31,6.09-38.42,18.28-51.32,12.19-12.9,28.61-19.36,49.28-19.36M5384.69,689.01h43.72V240.57c0-8.97-1.59-15.84-4.78-20.61-3.18-4.76-8.74-7.15-16.68-7.15h-27.82c-7.95,0-13.38,2.25-16.3,6.73-2.92,4.49-4.37,11.49-4.37,21.02v419.83c0,9.54,1.86,16.7,5.57,21.46s10.59,7.15,20.66,7.15M5867.16,3c-35.44,0-66.24,12.2-89.21,35.31-22.5-23.11-52.89-35.31-88.03-35.31s-66.65,12.65-89.27,36.59c-8.36,8.85-15.2,18.83-20.47,29.77-8.26-7.88-17.68-14.56-28.15-19.92-24.54-12.56-56.92-18.67-98.99-18.67h-119.22c-42.07,0-74.45,6.11-98.99,18.67-29.52,15.11-50.67,40.73-61.17,74.08-7.86,24.96-11.68,58.02-11.68,101.07v452.65c0,43.07,3.82,76.13,11.68,101.07,10.49,33.32,31.64,58.94,61.15,74.07.02,0,.04.02.05.03,24.54,12.55,56.91,18.65,98.96,18.65h236.07c.83,0,1.65-.02,2.47-.05,8.7,18.9,27.81,32.03,49.99,32.03h135.12c7.01,0,13.71-1.31,19.87-3.7,6.16,2.39,12.86,3.7,19.87,3.7h139.09c30.38,0,55-24.62,55-55V130.36c0-17.17-2.64-33.31-7.84-47.96-5.67-15.97-14.37-30.24-25.85-42.39-22.89-24.22-54.16-37.01-90.46-37.01h0Z"/>
      </g>
      <g>
        <path class="cls-2" d="M6139.79,894.88c-31.23,0-56.51-8.44-75.15-25.08-19.27-17.2-29.45-39.57-29.45-64.68s7.6-45.97,22.6-60.03c13.16-12.35,30.59-20.52,51.78-24.26.79-.14,1.58-.24,2.37-.31,7.57-.67,17.46-2.58,21.56-7.9,2.47-3.2,6.6-11.39,6.6-30.34v-17.09h-75.82c-30.64,0-54.56-9.94-71.1-29.54-15.37-18.19-23.17-40.72-23.17-66.95s7.74-47.87,23-66.32c11.37-13.76,32.97-30.17,71.26-30.17h53.51c-33.75-4.3-58.79-15.57-76.04-34.11-22.06-23.72-32.79-59.71-32.79-110.02v-170.79c0-35.06,11.03-62.53,32.78-81.65,20.73-18.22,46.5-27.47,76.59-27.47s56.03,9.55,76.32,28.38c20.87,19.39,31.45,46.55,31.45,80.74v119.73h418.4c37.44,0,58.44,17.03,69.46,31.32,14.35,18.62,21.62,40.83,21.62,66.02s-7.17,48.2-21.3,67.27c-8.8,11.86-23.99,25.55-48.94,30.58h9.36c38.27,0,59.88,16.41,71.27,30.17,15.27,18.46,23.01,40.77,23.01,66.32s-7.8,48.75-23.19,66.97c-16.54,19.59-40.46,29.52-71.08,29.52h-37.67v187.04c0,15.19-12.31,27.5-27.5,27.5h-161.36c-15.19,0-27.5-12.31-27.5-27.5v-187.04h-71.38v22.98c0,39.33-8.78,75.1-26.1,106.31-17.59,31.67-42.75,56.65-74.77,74.27-31.55,17.34-68.1,26.12-108.63,26.12Z"/>
        <path class="cls-3" d="M6118.33,75.66c23.31,0,42.51,7.02,57.62,21.04,15.11,14.03,22.66,34.22,22.66,60.58v126.2c0,8.41,1.58,14.02,4.76,16.82,3.18,2.81,9.28,4.2,18.28,4.2h422.85c21.19,0,37.09,6.87,47.69,20.62,10.59,13.75,15.9,30.15,15.9,49.22s-5.3,36.6-15.9,50.9c-10.61,14.31-26.5,21.45-47.69,21.45h-492.79c-42.93,0-72.88-9.11-89.83-27.34-16.95-18.22-25.43-48.66-25.43-91.29v-170.79c0-26.92,7.81-47.25,23.44-61,15.63-13.75,35.11-20.62,58.43-20.62M6674.71,499.7c22.25,0,38.94,6.74,50.08,20.2,11.13,13.46,16.7,29.73,16.7,48.79s-5.57,36.04-16.7,49.22c-11.13,13.19-27.82,19.77-50.08,19.77h-65.17v214.54h-161.36v-214.54h-126.38v50.48c0,34.78-7.55,65.76-22.65,92.97-15.11,27.19-36.43,48.36-63.99,63.52-27.56,15.14-59.34,22.72-95.37,22.72-24.38,0-43.33-6.04-56.84-18.09-13.52-12.07-20.27-26.79-20.27-44.17s4.63-31.27,13.91-39.96c9.27-8.7,21.86-14.44,37.76-17.25,19.07-1.68,32.72-7.85,40.93-18.51,8.21-10.65,12.32-26.36,12.32-47.12v-44.59h-103.32c-22.26,0-38.95-6.59-50.07-19.77-11.13-13.17-16.69-29.59-16.69-49.22s5.56-35.33,16.69-48.79c11.12-13.46,27.81-20.2,50.07-20.2h610.43M6118.33,20.66c-17.86,0-34.81,2.79-50.4,8.29-16.35,5.77-31.27,14.52-44.35,26.02-19.22,16.89-42.12,48.36-42.12,102.3v170.79c0,26.57,2.74,49.32,8.37,69.55,6,21.55,15.39,39.98,27.93,54.85-21.75,8-36.46,20.89-45.96,32.4-9.77,11.82-17.24,25.12-22.16,39.54-4.73,13.83-7.13,28.73-7.13,44.29s2.38,30.82,7.08,44.68c4.99,14.72,12.59,28.19,22.6,40.03,15.09,17.9,43.35,39.27,92.08,39.27h47.64c0,.06-.02.11-.03.17-.69.1-1.48.19-2.36.26-1.59.14-3.18.35-4.75.63-26.54,4.69-48.68,15.22-65.82,31.3-14.26,13.36-31.28,38.12-31.28,80.07,0,33.17,13.36,62.63,38.64,85.2,23.84,21.28,55.28,32.06,93.47,32.06,45.22,0,86.21-9.93,121.86-29.51,36.66-20.17,65.45-48.77,85.58-85.02,18.95-34.15,28.88-72.87,29.53-115.16h16.41v159.54c0,30.38,24.62,55,55,55h161.36c30.38,0,55-24.62,55-55v-159.54h10.17c48.7,0,76.97-21.37,92.1-39.29,9.99-11.82,17.59-25.28,22.58-40,4.71-13.87,7.09-28.91,7.09-44.7s-2.4-30.46-7.14-44.3c-4.93-14.4-12.39-27.71-22.18-39.54-7.23-8.74-17.47-18.29-31.52-25.87.25-.32.49-.65.73-.98,17.73-23.92,26.71-52.06,26.71-83.65s-9.2-59.26-27.33-82.79c-11.05-14.33-25.05-25.21-41.61-32.37-14.84-6.42-31.54-9.67-49.64-9.67h-390.9v-92.23c0-19.72-3.08-37.95-9.15-54.18-6.78-18.13-17.24-33.84-31.08-46.7-12.93-12-27.83-21.13-44.3-27.14-15.62-5.7-32.7-8.6-50.75-8.6h0Z"/>
      </g>
      <g>
        <path class="cls-2" d="M6967.21,875.52c-34.21,0-60.63-4.76-80.78-14.54-22.65-11.02-38.77-28.97-47.91-53.35-7.86-20.96-11.68-47.93-11.68-82.44v-84.14c0-34.39,10.84-61.52,32.21-80.64,3.59-3.21,7.34-6.14,11.26-8.8h-12c-26.21,0-48.53-9.4-64.56-27.19-15.5-17.19-23.36-38.25-23.36-62.57s7.38-45.68,21.92-62.29c12.35-14.11,29-22.66,49.62-25.54v-65.3c0-25.93,9.03-48.03,26.18-64.21h-.27c-26.68,0-49.4-10.43-65.71-30.17-15.25-18.44-22.99-39.9-22.99-63.79s7.33-45.77,21.8-64.13c15.8-20.07,38.93-30.68,66.9-30.68h356.09c27.95,0,51.08,10.61,66.9,30.68,8.52,10.82,14.56,22.74,18.09,35.66,3.34-25.29,13.52-46.14,30.4-62.15,20.59-19.53,45.94-29.43,75.37-29.43s54.77,9.9,75.36,29.43c20.99,19.91,31.63,47.29,31.63,81.37v99.57c37.7.85,57.71,18.51,67.9,33.39,12.96,18.9,19.53,41.54,19.53,67.28s-6.77,48.62-20.12,67.58c-10.37,14.73-30.4,32.22-67.3,33.08v212.32c0,15.19-12.31,27.5-27.5,27.5h-158.97c-15.19,0-27.5-12.31-27.5-27.5v-121.85c-15.04,12.43-34.15,18.94-55.95,18.94h-251.37c4.17,2.91,8.15,6.15,11.93,9.72,20.49,19.37,30.87,46.18,30.87,79.72v49.91h410.45c30.26,0,53.84,9.14,70.1,27.18,15.51,17.22,23.37,38.84,23.37,64.26s-7.79,47.82-23.15,65.28c-16.28,18.48-39.93,27.84-70.32,27.84h-486.43ZM7254.61,372.96c21.4.46,39.19,6.2,53.1,17.08v-208.03c-3.82,11.58-9.85,22.39-18.06,32.33-15.52,18.77-36.82,29.12-61.79,30.1,17.52,16.47,26.75,38.62,26.75,64.28v64.24ZM7053.38,372.93v-64.21c0-25.92,8.79-48.02,25.47-64.21h-62.39c16.99,16.47,25.95,38.6,25.95,64.21v64.21h10.97Z"/>
        <path class="cls-3" d="M7414.7,58c22.25,0,41.06,7.3,56.43,21.88,15.37,14.58,23.06,35.06,23.06,61.42v127.04h24.64c22.24,0,38.27,7.16,48.08,21.46,9.8,14.31,14.71,31.55,14.71,51.73s-5.04,37.45-15.11,51.74c-10.07,14.31-25.97,21.45-47.68,21.45h-24.64v239.79h-158.97V141.3c0-26.36,7.67-46.84,23.04-61.42,15.37-14.58,34.18-21.88,56.44-21.88M7223.94,83.24c19.6,0,34.69,6.74,45.3,20.2,10.59,13.46,15.9,29.17,15.9,47.11s-5.57,32.82-16.69,46.28c-11.13,13.46-25.97,20.19-44.51,20.19h-356.09c-18.55,0-33.39-6.73-44.51-20.19-11.13-13.46-16.69-28.89-16.69-46.28s5.29-33.65,15.9-47.11c10.59-13.46,25.69-20.2,45.3-20.2h356.09M7153.2,245.62c22.78,0,40.8,5.75,54.04,17.25,13.24,11.51,19.87,26.79,19.87,45.86v91.71h24.65c20.14,0,35.23,5.75,45.3,17.25,10.07,11.51,15.11,26.23,15.11,44.17s-5.43,32.11-16.29,44.17c-10.87,12.07-25.57,18.09-44.11,18.09h-393.44c-18.55,0-33.25-6.03-44.12-18.09-10.87-12.06-16.29-26.78-16.29-44.17s5.03-32.66,15.11-44.17c10.07-11.49,25.17-17.25,45.31-17.25h11.12v-91.71c0-19.63,6.62-35.06,19.87-46.28,13.24-11.22,31.26-16.83,54.05-16.83s39.74,5.75,52.46,17.25c12.71,11.51,19.08,26.79,19.08,45.86v91.71h65.97v-91.71c0-19.63,6.36-35.06,19.07-46.28s30.47-16.83,53.26-16.83M6936.21,560.29c23.32,0,42.39,7.02,57.23,21.04,14.83,14.02,22.25,33.92,22.25,59.73v58.9c0,7.86,1.19,12.91,3.58,15.15,2.38,2.24,7.55,3.36,15.5,3.36h418.87c22.25,0,38.81,6.04,49.68,18.09,10.86,12.05,16.29,27.34,16.29,45.85s-5.43,34.77-16.29,47.11c-10.87,12.34-27.42,18.51-49.68,18.51h-486.43c-29.68,0-52.6-3.93-68.76-11.78-16.16-7.86-27.56-20.62-34.18-38.27-6.62-17.67-9.93-41.93-9.93-72.78v-84.14c0-26.35,7.67-46.4,23.04-60.14,15.37-13.75,34.97-20.62,58.81-20.62M7414.7,3c-36.19,0-68.79,12.79-94.29,36.98-6.29,5.96-11.87,12.5-16.74,19.56-9.08-9.04-19.56-16.24-31.3-21.47-14.61-6.52-30.91-9.82-48.43-9.82h-356.09c-17.53,0-33.82,3.31-48.44,9.82-15.75,7.02-29.23,17.57-40.08,31.36-9.16,11.63-16.17,24.52-20.82,38.32-4.55,13.49-6.86,27.89-6.86,42.81,0,30.03,10.13,58.15,29.31,81.33,10.89,13.18,24.06,23.34,39.13,30.18.9.41,1.8.8,2.7,1.18-5.52,13.82-8.35,29.09-8.35,45.49v43.85c-20.1,7.19-33.85,18.64-42.81,28.87-18.8,21.46-28.73,49.26-28.73,80.41s10.53,58.91,30.45,81c11.82,13.12,26.09,22.82,42.28,28.87-9.37,17.27-16.28,39.96-16.28,69.33v84.14c0,37.86,4.39,67.98,13.42,92.08,11.54,30.77,32.85,54.43,61.62,68.43,24,11.66,54.36,17.32,92.82,17.32h486.43c48.12,0,76.02-20.21,90.95-37.16,19.65-22.33,30.02-51.18,30.02-83.46s-10.52-60.56-30.43-82.66c-2.57-2.85-5.51-5.79-8.88-8.7,8.63-9.71,13.88-22.51,13.88-36.52v-188.14c7.15-1.67,13.97-3.95,20.41-6.85,17.03-7.66,31.12-19.3,41.89-34.59,16.67-23.67,25.13-51.74,25.13-83.4s-8.19-59.26-24.34-82.83c-10.7-15.61-24.94-27.47-42.32-35.22-6.54-2.92-13.47-5.21-20.76-6.88v-75.31c0-19.74-3.12-38.06-9.27-54.46-6.78-18.06-17.19-33.82-30.93-46.86-25.5-24.19-58.11-36.98-94.28-36.98h0ZM7272.84,261.53c2.51-1.18,4.97-2.44,7.37-3.8v28.75c-1.54-8.73-4.01-17.07-7.37-24.94h0ZM7058.17,579.11h193.59c9.91,0,19.42-1.05,28.45-3.13v78.54c0,3.04.25,6.03.72,8.94h-210.24v-22.41c0-19.42-3.04-37.41-9.03-53.49-1.07-2.88-2.24-5.69-3.5-8.45h0Z"/>
      </g>
    </g>
  </g>
</svg>