<?xml version="1.0" encoding="UTF-8"?>
<svg id="Layer_2" data-name="Layer 2" xmlns="http://www.w3.org/2000/svg" viewBox="0 0 116.23 30.31">
  <defs>
    <style>
      .cls-1 {
        fill: #2db400;
      }
    </style>
  </defs>
  <g id="Layer_6" data-name="Layer 6">
    <g>
      <polygon class="cls-1" points="0 29.83 8.17 29.83 8.17 19.24 17.04 19.24 17.04 12.16 8.17 12.16 8.17 7.57 17.82 7.57 17.82 .46 0 .46 0 29.83"/>
      <rect class="cls-1" x="19.95" y=".46" width="8.17" height="29.37"/>
      <polygon class="cls-1" points="40.12 .46 31.95 .46 31.95 29.83 50.25 29.83 50.25 22.64 40.12 22.64 40.12 .46"/>
      <path class="cls-1" d="M68.35,17.74c-.04-.13-5.96-17.29-5.96-17.29h-10.84v29.37h7.65v-15.81l5.6,15.81h6.46l5.48-15.91v15.91h8.09V.46h-10.51s-5.93,17.15-5.98,17.29Z"/>
      <path class="cls-1" d="M112.24,4.14c-2.66-2.75-6.13-4.14-10.33-4.14-4.42,0-8.06,1.45-10.82,4.31-2.74,2.85-4.13,6.62-4.13,11.19s1.38,7.94,4.09,10.68c2.71,2.74,6.22,4.12,10.42,4.12s7.89-1.43,10.63-4.25c2.74-2.81,4.13-6.55,4.13-11.1s-1.34-8.07-3.99-10.81ZM106.02,20.97c-1.12,1.3-2.57,1.93-4.43,1.93s-3.23-.65-4.37-2c-1.17-1.37-1.77-3.3-1.77-5.73s.6-4.33,1.77-5.75c1.15-1.38,2.62-2.05,4.52-2.05s3.24.65,4.32,1.98c1.12,1.37,1.68,3.37,1.68,5.93s-.58,4.35-1.72,5.67Z"/>
    </g>
  </g>
</svg>